<?xml version="1.0" standalone="no"?>
<!DOCTYPE svg PUBLIC "-//W3C//DTD SVG 20010904//EN"
 "http://www.w3.org/TR/2001/REC-SVG-20010904/DTD/svg10.dtd">
<svg version="1.0" xmlns="http://www.w3.org/2000/svg"
 width="100.000000pt" height="100.000000pt" viewBox="0 0 100.000000 100.000000"
 preserveAspectRatio="xMidYMid meet">
<metadata>
Created by potrace 1.14, written by Peter Selinger 2001-2017
</metadata>
<g transform="translate(0.000000,100.000000) scale(0.100000,-0.100000)"
fill="#000000" stroke="none">
<path d="M0 500 l0 -500 500 0 500 0 0 500 0 500 -500 0 -500 0 0 -500z m673
266 c69 -29 97 -88 97 -205 0 -54 -6 -89 -20 -119 -29 -63 -58 -72 -235 -72
l-145 0 0 -75 0 -76 -62 3 -63 3 -3 278 -2 277 200 0 c148 0 209 -4 233 -14z"/>
<path d="M370 565 l0 -45 128 0 c132 0 152 6 152 41 0 41 -25 49 -156 49
l-124 0 0 -45z"/>
</g>
</svg>
